<svg id="svg" xmlns="http://www.w3.org/2000/svg" xmlns:xlink="http://www.w3.org/1999/xlink" width="400" height="56.47969052224371" viewBox="0, 0, 400,56.47969052224371" version="1.1"><g id="svgg"><path id="path0" d="M353.476 4.164 L 350.096 7.560 353.387 10.834 L 356.679 14.109 360.058 10.729 L 363.437 7.350 360.147 4.059 L 356.856 0.768 353.476 4.164 M21.083 3.644 C 6.028 7.122,-2.769 21.772,1.133 36.867 C 5.840 55.079,27.512 62.239,44.927 51.337 L 48.162 49.311 48.265 37.228 L 48.367 25.145 37.240 25.148 L 26.112 25.151 24.796 29.500 C 24.072 31.892,23.401 34.067,23.304 34.333 C 23.167 34.709,24.770 34.816,30.520 34.816 L 37.911 34.816 37.911 39.401 L 37.911 43.986 35.300 45.187 C 24.994 49.928,13.818 44.890,11.439 34.431 C 7.562 17.388,23.932 6.543,38.657 16.399 L 41.729 18.456 44.656 14.863 C 48.179 10.537,48.152 10.891,45.123 8.729 C 38.501 4.003,28.596 1.908,21.083 3.644 M56.770 3.381 L 54.545 3.520 54.545 29.794 L 54.545 56.069 57.737 55.869 C 59.492 55.760,61.668 55.580,62.573 55.471 L 64.217 55.272 64.217 29.183 L 64.217 3.095 61.605 3.168 C 60.169 3.208,57.993 3.304,56.770 3.381 M114.797 3.382 L 112.186 3.517 112.192 20.811 C 112.201 42.916,112.513 44.596,117.635 50.070 C 132.006 65.433,158.551 50.013,151.885 30.174 C 148.003 18.622,132.582 12.738,123.476 19.335 L 121.857 20.508 121.857 11.801 L 121.857 3.095 119.632 3.171 C 118.409 3.212,116.233 3.307,114.797 3.382 M195.068 3.381 L 192.650 3.519 192.650 29.815 L 192.650 56.111 195.841 55.891 C 197.597 55.770,199.773 55.581,200.677 55.471 L 202.321 55.272 202.321 29.183 L 202.321 3.095 199.903 3.169 C 198.574 3.210,196.397 3.306,195.068 3.381 M247.292 3.381 L 244.874 3.519 244.874 29.808 L 244.874 56.097 248.259 55.884 C 250.121 55.766,252.384 55.581,253.288 55.471 L 254.932 55.272 254.932 29.183 L 254.932 3.095 252.321 3.169 C 250.885 3.210,248.622 3.306,247.292 3.381 M208.897 30.210 L 208.897 56.165 212.669 55.923 C 214.744 55.790,217.181 55.589,218.085 55.477 L 219.729 55.272 219.729 46.978 L 219.729 38.685 222.936 38.685 C 236.945 38.685,244.959 25.622,238.774 12.870 C 235.458 6.033,231.113 4.255,217.714 4.255 L 208.897 4.255 208.897 30.210 M333.946 9.202 L 329.594 11.396 329.594 14.402 L 329.594 17.408 327.751 17.408 L 325.908 17.408 324.849 21.222 C 323.450 26.263,323.315 25.919,326.692 25.919 L 329.594 25.919 329.601 34.720 C 329.613 51.228,332.074 55.383,342.404 56.343 C 347.303 56.799,347.442 56.705,348.665 52.126 C 349.247 49.946,349.720 48.053,349.717 47.920 C 349.713 47.786,348.142 47.602,346.226 47.510 C 339.861 47.206,339.501 46.537,339.336 34.720 L 339.213 25.919 343.688 25.919 L 348.162 25.919 348.162 21.663 L 348.162 17.408 343.714 17.408 L 339.265 17.408 339.265 12.186 C 339.265 6.030,339.725 6.289,333.946 9.202 M224.943 13.971 C 228.652 15.001,230.808 19.309,229.784 23.645 C 228.913 27.331,225.777 29.400,221.064 29.400 L 219.729 29.400 219.729 21.470 L 219.729 13.540 221.567 13.542 C 222.577 13.543,224.097 13.736,224.943 13.971 M84.526 17.013 C 71.554 19.871,64.827 33.463,70.601 45.146 C 78.854 61.846,105.278 58.788,109.050 40.697 C 112.014 26.485,98.921 13.840,84.526 17.013 M164.131 17.181 C 160.747 17.741,161.232 17.126,160.010 22.402 C 158.808 27.591,158.725 27.385,161.579 26.295 C 163.105 25.712,165.032 25.373,167.562 25.240 C 174.979 24.853,177.176 25.931,177.176 29.959 L 177.176 32.124 175.725 31.390 C 163.281 25.095,149.919 36.846,155.841 48.877 C 159.292 55.886,169.319 58.488,176.159 54.150 L 177.950 53.015 177.950 54.604 L 177.950 56.193 181.528 55.928 C 183.496 55.782,185.411 55.574,185.783 55.465 C 186.754 55.181,186.821 27.272,185.858 24.032 C 183.981 17.711,176.041 15.208,164.131 17.181 M268.763 17.154 C 265.490 17.762,265.652 17.556,264.479 22.624 C 263.314 27.657,263.155 27.321,266.202 26.264 C 269.696 25.053,277.338 24.781,279.304 25.799 C 280.899 26.624,282.010 28.618,282.011 30.658 C 282.012 32.387,282.240 32.353,279.447 31.045 C 274.763 28.851,266.981 29.806,263.206 33.036 C 258.335 37.206,257.689 46.083,261.871 51.374 C 265.870 56.433,274.926 57.754,280.664 54.115 L 282.398 53.015 282.398 54.604 L 282.398 56.193 285.977 55.922 C 287.945 55.774,289.964 55.554,290.463 55.434 L 291.371 55.216 291.194 40.471 C 291.006 24.817,290.942 24.247,289.014 21.208 C 286.496 17.237,277.741 15.484,268.763 17.154 M303.916 17.268 C 298.499 18.931,295.426 22.973,295.426 28.433 C 295.426 34.517,298.492 37.574,307.620 40.590 C 312.192 42.101,313.346 42.917,313.346 44.641 C 313.346 48.782,306.283 49.165,301.390 45.290 L 299.941 44.142 296.876 47.229 L 293.810 50.315 295.358 51.638 C 305.959 60.703,322.943 56.710,323.710 44.973 C 324.156 38.131,321.687 35.392,312.255 32.270 C 305.978 30.192,304.156 28.111,306.533 25.733 C 308.540 23.727,312.033 24.196,315.185 26.894 L 316.754 28.237 319.886 25.709 C 323.520 22.774,323.464 22.931,321.518 21.173 C 317.020 17.109,309.713 15.488,303.916 17.268 M380.658 17.250 C 368.190 20.560,362.212 34.435,368.178 46.217 C 372.912 55.566,386.207 58.970,396.618 53.499 C 400.273 51.579,400.222 51.213,395.424 44.949 L 394.741 44.056 391.869 45.432 C 383.718 49.338,375.837 44.774,375.878 36.170 C 375.919 27.647,383.994 23.122,391.913 27.185 C 393.455 27.976,394.751 28.581,394.792 28.528 C 397.314 25.375,399.669 21.452,399.347 20.941 C 397.419 17.884,386.438 15.716,380.658 17.250 M354.062 17.308 L 351.644 17.445 351.644 36.771 L 351.644 56.097 355.029 55.884 C 356.891 55.766,359.154 55.581,360.058 55.471 L 361.702 55.272 361.702 36.147 L 361.702 17.021 359.091 17.096 C 357.655 17.137,355.392 17.232,354.062 17.308 M93.898 26.912 C 100.486 30.135,101.393 39.356,95.631 44.536 C 88.548 50.904,77.920 45.343,78.617 35.635 C 79.180 27.801,86.811 23.445,93.898 26.912 M136.629 26.599 C 146.981 31.178,143.270 47.233,131.870 47.187 C 120.437 47.140,118.064 30.112,128.949 26.225 C 131.338 25.372,134.166 25.509,136.629 26.599 M174.222 38.058 C 177.817 39.560,178.332 44.801,175.079 46.777 C 169.213 50.340,161.334 44.634,165.248 39.658 C 166.846 37.626,171.292 36.833,174.222 38.058 M279.186 38.281 C 282.619 40.374,282.687 45.253,279.307 47.000 C 273.330 50.091,266.494 45.083,269.642 39.920 C 271.093 37.539,276.458 36.617,279.186 38.281 " stroke="none" fill="#000000" fill-rule="evenodd"></path></g></svg>