<svg id="svg" xmlns="http://www.w3.org/2000/svg" xmlns:xlink="http://www.w3.org/1999/xlink" width="400" height="305.18934081346424" viewBox="0, 0, 400,305.18934081346424"><g id="svgg">
<defs>
    <linearGradient id="grad1" x1="0%" x2="0%" y1="0%" y2="100%">
      <stop offset="0%" stop-color="#FF0000" />
      <stop offset="100%" stop-color="#6D2524" />
    </linearGradient>
  </defs>
<path id="path0" d="M188.780 0.638 C 159.028 3.202,131.058 13.577,113.604 28.523 C 109.609 31.944,105.142 36.885,105.615 37.359 C 105.843 37.587,255.146 18.542,260.309 17.627 L 262.272 17.279 259.758 15.040 C 247.333 3.975,218.334 -1.910,188.780 0.638 M301.543 4.844 C 278.245 17.416,268.241 20.129,206.732 30.559 C 161.611 38.210,151.860 39.950,134.362 43.474 C 79.670 54.487,52.706 64.252,39.271 77.911 C 27.481 89.896,28.032 107.373,40.275 109.735 C 43.671 110.390,44.320 109.124,44.320 101.838 C 44.320 91.310,45.609 88.864,55.449 80.714 C 62.127 75.183,78.088 67.242,79.563 68.717 C 79.663 68.817,77.807 73.404,75.438 78.910 C 69.904 91.772,65.865 104.201,66.888 105.224 C 67.057 105.393,74.861 103.863,84.229 101.824 C 173.374 82.422,208.430 79.703,308.554 84.428 C 317.347 84.843,324.629 85.095,324.735 84.989 C 325.833 83.891,315.079 64.002,308.870 55.644 C 304.582 49.873,286.074 30.655,280.555 26.244 L 278.080 24.265 283.921 21.270 C 294.872 15.654,309.677 4.109,309.677 1.186 C 309.677 0.380,310.514 0.004,301.543 4.844 M223.001 100.464 C 77.525 107.511,-15.719 140.296,2.140 178.121 C 9.127 192.917,32.513 205.821,42.115 200.176 C 44.325 198.877,48.282 194.394,47.629 193.930 C 47.506 193.842,45.936 193.324,44.141 192.777 C 25.784 187.190,14.104 174.661,18.448 165.217 C 21.746 158.047,42.643 145.013,57.952 140.579 C 63.458 138.983,63.135 138.623,63.611 146.866 C 64.499 162.205,69.926 184.423,72.735 184.215 C 73.306 184.173,78.623 182.736,84.551 181.022 C 142.592 164.241,234.703 157.061,311.360 163.343 C 351.791 166.656,371.759 164.041,388.955 153.181 C 405.280 142.871,403.099 127.237,384.020 117.805 C 356.587 104.241,290.946 97.172,223.001 100.464 M344.388 116.428 C 395.100 123.744,391.919 153.435,340.112 156.339 L 333.801 156.693 333.801 136.131 L 333.801 115.568 336.113 115.568 C 337.385 115.568,341.109 115.955,344.388 116.428 M225.806 185.476 C 173.291 188.498,135.654 193.747,103.706 202.507 C 43.434 219.034,30.294 245.545,69.536 271.451 C 95.148 288.360,142.016 304.218,168.583 304.965 C 178.313 305.238,178.266 305.181,165.778 301.537 C 111.256 285.628,66.760 258.985,66.760 242.249 C 66.760 233.664,75.817 226.126,91.770 221.432 L 94.620 220.594 97.880 225.549 C 116.468 253.798,165.823 273.615,209.664 270.433 C 235.749 268.539,253.407 262.503,275.483 247.932 C 285.957 241.019,286.775 240.712,294.811 240.673 C 297.896 240.658,301.431 240.412,302.665 240.127 C 303.899 239.842,312.453 238.577,321.673 237.316 C 353.243 232.999,363.372 229.827,368.590 222.623 C 379.552 207.491,347.096 191.408,295.652 186.479 C 286.978 185.648,235.630 184.911,225.806 185.476 M325.344 201.394 C 343.064 205.005,358.471 212.931,356.169 217.251 C 353.169 222.883,320.440 229.931,302.553 228.796 L 299.636 228.612 305.638 219.866 C 308.940 215.057,313.029 208.691,314.727 205.721 C 318.240 199.570,317.625 199.821,325.344 201.394 " stroke="none" fill="url(#grad1)" fill-rule="evenodd"></path></g></svg>